---
type: DBT
title: Example 3.5 from Where Responsibility Takes You
description: This has 16 histories so is computationally tough for OWL reasoners.
opposings:
  sd1:
    - ha2
  sd3:
    - rb4
aliases:
  1: Alice
  2: Beth
  3: Carl
  4: Diana
  ha: hits Alice
  q: Dan dies
  rb: run between Carl and Dan
  sd: shoots Dan
  ss: stands still
---
classDiagram
direction BT
  m --> m1 : h1({sd1, ss2, sd3, rb4})
  m --> m2 : h2({sd1, ss2, sd3, ss4})
  m --> m3 : h3({sd1, ss2, ss3, ss4})
  m --> m4 : h4({sd1, ss2, ss3, rb4})
  m --> m5 : h5({sd1, ha2, sd3, ss4})
  m --> m6 : h6({ss1, ss2, sd3, ss4})
  m --> m7 : h7({ss1, ha2, sd3, ss4})
  m --> m8 : h8({ss1, ss2, ss3, ss4})
  m --> m9 : h9({ss1, ss2, ss3, rb4})
  m --> m10 : h10({ss1, ha2, sd3, rb4})
  m --> m11 : h11({ss1, ss2, sd3, rb4})
  m --> m12 : h12({sd1, ha2, sd3, rb4})
  m --> m13 : h13({sd1, ha2, ss3, ss4})
  m --> m14 : h14({sd1, ha2, ss3, rb4})
  m --> m15 : h15({ss1, ha2, ss3, ss4})
  m --> m16 : h16({ss1, ha2, ss3, rb4})
  m1: q
  m2: q
  m3: q
  m4: q
  m5: q
  m6: q
  m7: q
  m8: ~q
  m9: ~q
  m10: ~q
  m11: ~q
  m12: ~q
  m13: ~q
  m14: ~q
  m15: ~q
  m16: ~q