---
title: Example 3.6 from Where Responsibility Takes You
description: Since there was only one history with a negated outcome, we decided to enumerate them all (esp as there's only 4).
type: DBT
aliases:
  1: Alice
  3: Carl
  q: Dan dies
  sd: shoots Dan
  ss: stands still
---
classDiagram
direction BT
  m --> m1 : h1({sd1, sd3})
  m --> m2 : h2({ss1, sd3})
  m --> m3 : h3({ss1, ss3})
  m --> m4 : h4({sd1, ss3})
  m1: q
  m2: q
  m3: ~q
  m4: q