---
title: First Temporal Depth=2 Example
description: Yeah, this is a mess and won't work :)
type: DBT
config:
    class:
      hideEmptyMembersBox: true
    theme: neutral
opposings:
  sd1:
    - ha2
aliases:
  1: Alice
  2: Beth
  3: Isabella
  sd: shoots Dan
  ss: stands still
  ha: hits Alice
  masd: manipulates Alice into shooting Dan
  q: Dan dies
res_analyse:
  - [m/h1, q]
---
classDiagram
direction BT

  m0 --> m : h1/h2/h3({masd3}+{sd1|ss1}+{ss2|ha2})
  m0 --> mm : h4/h5/h6({ss3}+{sd1|ss1}+{ss2|ha2})

  m --> m1 : h1({sd1, ss2}+{ss3|masd3})
  m --> m2 : h2({sd1, ha2}+{ss3|masd3})
  m --> m3 : h3({ss1}+{ss2|ha2}+{ss3|masd3})

  mm --> m4 : h4({sd1, ss2}+{ss3|masd3})
  mm --> m5 : h5({sd1, ha2}+{ss3|masd3})
  mm --> m6 : h6({ss1}+{ss2|ha2}+{ss3|masd3})

  m1: q
  m2: ~q
  m3: ~q
  m4: q
  m5: ~q
  m6: ~q
