---
title: Modified Example 3.1 (V1) from Where Responsibility Takes You
description: Same as 3.1 but with the opposing relation removed.
type: DBT
aliases:
  1: Alice
  2: Beth
  sd: shoots Dan
  ss: stands still
  ha: hits Alice
  q: Dan dies
res_analyse:
  - [m/h1, q]
---
classDiagram
direction BT
  m --> m1 : h1({sd1, ss2})
  m --> m2 : h2({sd1, ha2})
  m --> m3 : h3({ss1, ss2})
  m --> m4 : h4({ss1, ha2})
  m1: q
  m2: ~q
  m3: ~q
  m4: ~q
