---
title: Example 3.7 from Where Responsibility Takes You
description: Structurally similar to 3.1. q only when both agents push together; individual pushing is insufficient.
type: DBT
aliases:
  1: Alice
  3: Carl
  pd: push Dan
  q: Dan dies
  ss: stands still
res_analyse:
  - [m/h1, q]
---
classDiagram
direction BT
  m --> m1 : h1({pd1, pd3})
  m --> m2 : h2({pd1, ss3})
  m --> m3 : h3({ss1, pd3})
  m --> m4 : h4({ss1, ss3})
  m1: q
  m2: ~q
  m3: ~q
  m4: ~q